<svg width="103.000000" height="34.000000" viewBox="0 0 103 34" fill="none" xmlns="http://www.w3.org/2000/svg" xmlns:xlink="http://www.w3.org/1999/xlink">
	<desc>
			Created with Pixso.
	</desc>
	<defs>
		<clipPath id="clip964_17555">
			<rect id="fa-brands:hooli" width="103.000000" height="34.000000" fill="white" fill-opacity="0"/>
		</clipPath>
	</defs>
	<rect id="fa-brands:hooli" width="103.000000" height="34.000000" fill="#FFFFFF" fill-opacity="0"/>
	<g clip-path="url(#clip964_17555)">
		<path id="Vector" d="M23.2549 31.9248L29.4189 32.0525C27.2949 31.3184 25.2354 30.4243 23.2549 29.3708L23.2549 31.9248ZM32.541 31.0789L32.541 31.9248L29.4189 32.0525C35.2939 34.0479 40.6689 34.3193 44.6602 33.2019C41.457 33.2339 37.2891 32.7869 32.541 31.0789ZM98.3486 12.6902C100.907 12.6902 103 10.6311 103 8.0769C103 5.52295 100.924 4.16626 98.3486 4.16626C95.79 4.16626 93.6973 5.53906 93.6973 8.0769C93.6973 10.615 95.7734 12.6902 98.3486 12.6902ZM93.6816 31.9248L103 31.9248L103 14.2864L93.6816 14.2864L93.6816 31.9248ZM81.8203 31.9248L91.1387 31.9248L91.1387 0.750244L81.8203 5.10791L81.8203 31.9248ZM76.8311 12.8657C73.9023 9.96045 68.7197 10.1362 68.7197 10.1362C68.7197 10.1362 63.5215 9.96045 60.6094 12.8657C57.6797 15.771 57.9053 18.2771 57.9053 21.262C57.9053 24.2471 57.6797 26.7371 60.6094 29.6423C63.5381 32.5474 68.7197 32.3718 68.7197 32.3718C68.7197 32.3718 73.9189 32.5474 76.8311 29.6423C79.7607 26.7371 79.5352 24.2471 79.5352 21.262C79.5195 18.261 79.7441 15.7549 76.8311 12.8657ZM70.4258 24.3428C70.4258 24.9175 70.1367 26.3381 68.7041 26.3381C67.2715 26.3381 66.9824 24.9175 66.9824 24.3428L66.9824 17.8938C66.9824 16.5051 68.1572 16.1541 68.7041 16.1541C69.251 16.1541 70.4258 16.4893 70.4258 17.8938L70.4258 24.3428ZM53.335 12.8657C50.4053 9.96045 45.2236 10.1362 45.2236 10.1362C45.2236 10.1362 40.041 9.96045 37.1123 12.8657C36.8066 13.1689 36.5166 13.4883 36.2588 13.8235C30.1113 9.09863 24.5908 6.40088 19.8271 4.07031L19.8271 0.766113L16.2061 2.45825C7.45117 -1.06958 1.88281 -0.447021 0.546875 2.47412C0.546875 2.47412 -3.45996 7.70996 10.4932 20.1606L10.4932 31.9248L19.8115 31.9248L19.8115 27.3596C18.7656 26.6892 17.7188 25.9709 16.6895 25.1887C14.3076 23.4009 12.2793 21.741 10.5088 20.1765L10.5088 15.2283C12.6172 17.5747 15.418 20.2405 19.1035 23.2573L19.8271 23.832L19.8271 19.0752C19.8271 17.9736 20.1006 16.1699 21.5654 16.1699C23.0303 16.1699 23.2715 17.2715 23.2715 18.5642L23.2715 26.3381C26.168 28.2854 29.2744 29.8657 32.5576 31.063L32.5576 16.0742C32.5576 13.0891 30.4014 10.1042 26.0234 10.1042C23.4805 10.0884 21.1152 11.4131 19.8271 13.6001L19.8271 4.93237C26.5703 8.26855 33.3301 12.355 35.9053 14.2385C34.2637 16.5691 34.4082 18.7239 34.4082 21.2141C34.4082 24.199 34.1826 26.6892 37.1123 29.5945C40.041 32.4995 45.2236 32.324 45.2236 32.324C45.2236 32.324 50.4219 32.4995 53.335 29.5945C56.2637 26.6892 56.0225 24.199 56.0225 21.2141C56.0225 18.261 56.2637 15.7549 53.335 12.8657ZM10.4932 5.10791L10.4932 15.2122C2.65527 6.5127 4.23242 3.08081 4.82812 2.58594C7.00098 0.766113 10.8633 1.30884 15.1924 2.92114L10.4932 5.10791ZM46.9453 24.3428C46.9453 24.9175 46.6553 26.3381 45.2236 26.3381C43.791 26.3381 43.501 24.9175 43.501 24.3428L43.501 17.8938C43.501 16.5051 44.6758 16.1541 45.2236 16.1541C45.7705 16.1541 46.9453 16.4893 46.9453 17.8938L46.9453 24.3428Z" fill="#737373" fill-opacity="1.000000" fill-rule="nonzero"/>
	</g>
</svg>
