<svg width="83.000000" height="58.956543" viewBox="0 0 83 58.9565" fill="none" xmlns="http://www.w3.org/2000/svg" xmlns:xlink="http://www.w3.org/1999/xlink">
	<desc>
			Created with Pixso.
	</desc>
	<defs/>
	<path id="Vector" d="M0 0.977783L12.6123 0.977783L12.6123 34.9924C12.6123 40.3872 15.0439 43.5981 17.0215 44.9346C14.9629 46.7437 8.72168 48.3408 4.02051 44.4783C1.26465 42.1963 0 38.3989 0 34.8621L0 0.977783ZM78.7686 29.2556L78.7686 25.6699L82.627 25.6699L82.627 13.1528L78.3965 13.1528C76.7588 5.60669 70.0957 0 62.1367 0C52.9609 0 45.4883 7.49731 45.4883 16.7383L45.4883 45.9451C48.082 46.3198 51.2266 45.8962 53.8691 43.6633C56.6406 41.3816 57.8896 37.6003 57.8896 34.0471L57.8896 32.9553L64.1787 32.9553L64.1787 20.4382L57.8896 20.4382L57.8896 16.6406C57.8896 11.0015 66.3516 11.0015 66.3516 16.6406L66.3516 29.2065C66.3516 38.4314 73.8086 45.9451 83 45.9451L83 33.4768C80.6494 33.4768 78.7686 31.5698 78.7686 29.2556ZM31.0605 13.1201L31.0605 31.5374C31.0605 34.0471 27.2021 34.0471 27.2021 31.5374L27.2021 13.1201L14.752 13.1201L14.752 34.748C14.752 38.627 16.0488 43.5491 22.0469 45.1626C28.0449 46.76 31.4814 43.4351 31.4814 43.4351C31.1416 45.6191 29.1309 47.2327 25.8242 47.5586C23.3115 47.8193 20.1182 46.9719 18.5293 46.2874L18.5293 57.7451C22.5977 58.9673 26.8779 59.3423 31.1084 58.511C38.7441 57.0278 43.5586 50.6226 43.5586 42.0823L43.5586 13.0386L31.0605 13.0386L31.0605 13.1201Z" fill="#737373" fill-opacity="1.000000" fill-rule="nonzero"/>
</svg>
