<svg width="102.000000" height="74.842285" viewBox="0 0 102 74.8423" fill="none" xmlns="http://www.w3.org/2000/svg" xmlns:xlink="http://www.w3.org/1999/xlink">
	<desc>
			Created with Pixso.
	</desc>
	<defs/>
	<path id="Vector" d="M102 0C89.1221 8.68262 87.752 14.9839 86.6367 16.9114C85.5684 18.8877 84.7715 26.6792 82.9229 30.4536C81.0586 34.2764 74.2852 37.2893 72.3877 38.553C70.5234 39.8164 67.8779 44.7246 65.71 48.9524C48.4814 48.2397 39.0312 55.2375 24.4004 64.1145C29.0859 62.5432 31.3008 61.4092 31.3008 61.4092C46.3145 55.5776 53.502 50.3455 76.1016 53.4395C76.2773 53.4395 76.4043 53.5366 76.5479 53.5691C77.1689 53.9255 77.3926 54.6868 77.042 55.3186L68.4512 70.8369C68.0527 71.5984 67.208 72.0032 66.3633 71.825C46.1553 67.9697 30.2012 74.6274 15.5391 74.8381C3.84082 75.0161 0 69.4114 0 69.1523C0 68.9741 0.0957031 68.877 0.270508 68.877C0.270508 68.877 6.375 68.877 16.7021 66.3984C28.4326 43.6716 38.8877 35.7183 50.2666 35.7183C50.2666 35.7183 61.6943 35.7183 64.7061 45.7451C68.3398 39.3142 69.2168 37.7754 69.2168 37.7754C70.0615 36.2527 74.7949 25.27 82.9863 14.8704C91.1943 4.50317 97.3945 1.92773 102 0Z" fill="#737373" fill-opacity="1.000000" fill-rule="nonzero"/>
</svg>
