<svg width="102.984375" height="41.984131" viewBox="0 0 102.984 41.9841" fill="none" xmlns="http://www.w3.org/2000/svg" xmlns:xlink="http://www.w3.org/1999/xlink">
	<desc>
			Created with Pixso.
	</desc>
	<defs/>
	<path id="Vector" d="M26.5391 3.29321L19.5703 4.75684L19.5381 27.4114C19.5381 31.5955 22.7246 34.3 26.957 34.3C29.3066 34.3 31.0283 33.8704 31.9785 33.3613L31.9785 27.9841C31.0605 28.3501 26.5547 29.6545 26.5547 25.4863L26.5547 15.4319L31.9785 15.4319L31.9785 9.41821L26.5547 9.41821L26.5391 3.29321ZM40.8779 11.5022L40.4434 9.41821L34.2637 9.41821L34.2637 33.791L41.3936 33.791L41.3936 17.3887C43.083 15.1931 45.9316 15.6228 46.8486 15.9092L46.8486 9.41821C45.8828 9.08398 42.5518 8.46362 40.8779 11.5022ZM55.7324 0L48.5547 1.51147L48.5547 7.27051L55.7324 5.75903L55.7324 0ZM7.20996 16.5933C7.20996 15.4954 8.14355 15.0659 9.64062 15.05C11.8125 15.05 14.5811 15.7024 16.7539 16.8635L16.7539 10.2136C14.3877 9.29102 12.0225 8.92505 9.65625 8.92505C3.8623 8.92505 0 11.916 0 16.9114C0 24.7385 10.8633 23.4658 10.8633 26.8386C10.8633 28.1431 9.7207 28.5728 8.12695 28.5728C5.76172 28.5728 2.7041 27.6023 0.305664 26.3137L0.305664 32.6772C2.96094 33.8069 5.64844 34.2842 8.11133 34.2842C14.0498 34.2842 18.1377 31.7705 18.1377 26.6794C18.1377 18.2637 7.20996 19.7749 7.20996 16.5933ZM102.984 21.8909C102.984 14.6523 99.4434 8.94092 92.6514 8.94092C85.8604 8.94092 81.7236 14.6523 81.7236 21.8433C81.7236 30.3545 86.6006 34.2842 93.5527 34.2842C96.9648 34.2842 99.5234 33.5205 101.471 32.4546L101.471 27.1409C99.5234 28.1113 97.2871 28.7 94.4541 28.7C91.6699 28.7 89.2236 27.7295 88.9023 24.4204L102.888 24.4204C102.92 24.0544 102.984 22.575 102.984 21.8909ZM88.8379 19.2183C88.8379 16.0364 90.8174 14.7 92.6035 14.7C94.3574 14.7 96.2246 16.0364 96.2246 19.2183L88.8379 19.2183ZM70.668 8.94092C67.8672 8.94092 66.0645 10.2454 65.0674 11.1523L64.6973 9.40234L58.4043 9.40234L58.4043 41.9841L65.5498 40.4885L65.5664 32.5022C66.5957 33.25 68.125 34.2842 70.6191 34.2842C75.7373 34.2842 80.4043 30.5933 80.4043 21.6204C80.4209 13.4114 75.6885 8.94092 70.668 8.94092ZM68.9619 28.4294C67.2881 28.4294 66.29 27.825 65.5977 27.0933L65.5498 16.5933C66.29 15.7817 67.3203 15.1931 68.9619 15.1931C71.5693 15.1931 73.3711 18.0886 73.3711 21.7795C73.3877 25.5818 71.6172 28.4294 68.9619 28.4294ZM48.5713 33.791L55.749 33.791L55.749 9.41821L48.5713 9.41821L48.5713 33.791Z" fill="#737373" fill-opacity="1.000000" fill-rule="nonzero"/>
</svg>
