<svg width="103.677734" height="61.746094" viewBox="0 0 103.678 61.7461" fill="none" xmlns="http://www.w3.org/2000/svg" xmlns:xlink="http://www.w3.org/1999/xlink">
	<desc>
			Created with Pixso.
	</desc>
	<defs/>
	<path id="Vector" d="M29.2256 22.3633C29.1094 26.0012 30.9424 27.6123 30.9883 28.6355C30.9668 28.8438 30.8945 29.0439 30.7793 29.219C30.6641 29.3943 30.5078 29.5396 30.3242 29.6426L28.25 31.0818C27.9824 31.2683 27.666 31.3752 27.3389 31.3901C27.2686 31.387 26.0117 31.6841 24.0205 27.2766C22.8057 28.78 21.2607 29.9878 19.5029 30.8079C17.7451 31.6277 15.8213 32.0378 13.8779 32.0068C11.2412 32.1499 4.09375 30.5227 4.46191 22.9783C4.2041 16.8298 9.97949 13.0103 15.9521 13.333C17.1016 13.3362 19.4512 13.3926 23.5635 14.3401L23.5635 11.8313C24 7.5813 21.1826 4.28369 16.3047 4.77832C15.916 4.78003 13.1621 4.698 8.87891 6.40234C7.68652 6.94507 7.53418 6.85522 7.1377 6.85522C5.9375 6.85522 6.43164 3.40503 6.66113 2.96802C7.50586 1.94019 12.4707 0.020752 17.3438 0.0480957C20.6016 -0.237793 23.8418 0.759277 26.3652 2.82349C27.3906 3.96094 28.1729 5.29248 28.665 6.73804C29.1562 8.18359 29.3477 9.71289 29.2275 11.2336L29.2256 22.3633ZM15.2266 27.5657C20.4795 27.4902 22.7041 24.3582 23.2109 22.6716C23.6094 21.0574 23.543 20.0359 23.543 18.2705C21.9766 17.8979 19.7217 17.4915 17.1348 17.4883C14.6807 17.3052 10.1982 18.3926 10.373 22.6699C10.1719 25.3669 12.1738 27.7136 15.2266 27.5657ZM42.9141 31.2681C41.6406 31.3838 41.0479 30.4875 40.8604 29.6025L32.793 3.15601C32.6357 2.70947 32.5322 2.24854 32.4814 1.77783C32.4521 1.58398 32.501 1.38599 32.6182 1.22803C32.7354 1.06982 32.9111 0.964355 33.1074 0.93457C33.1455 0.928223 32.7617 0.93457 36.7109 0.93457C38.1338 0.793213 38.5967 1.90332 38.7441 2.60034L44.5312 25.2207L49.9023 2.60034C49.9883 2.08301 50.3789 0.822266 51.9756 0.955566L54.7559 0.955566C55.1074 0.926514 56.5557 0.875244 56.8096 2.62109L62.2236 25.5308L68.1963 2.62109C68.2744 2.271 68.6367 0.794922 70.251 0.955566L73.4453 0.955566C73.583 0.93457 74.4414 0.825439 74.2959 2.33374C74.2256 2.63086 74.8477 0.621338 65.75 29.6233C65.5645 30.5083 64.9697 31.4045 63.6963 31.2891L60.6689 31.2891C58.8965 31.4736 58.6416 29.7373 58.6143 29.5623L53.2432 7.53613L47.9326 29.5398C47.9072 29.7148 47.6523 31.4512 45.8789 31.2664L42.9141 31.2664L42.9141 31.2681ZM87.2158 32.1724C86.2637 32.1741 81.7217 32.1243 77.9238 30.1982C77.5459 30.0396 77.2236 29.7729 76.998 29.4324C76.7734 29.0918 76.6553 28.6926 76.6592 28.2854L76.6592 26.5586C76.6592 25.2014 77.6631 25.4504 78.0898 25.6125C79.7158 26.2646 80.7588 26.7595 82.7568 27.1545C88.6934 28.364 91.3047 26.7852 91.9443 26.4351C94.0752 25.1804 94.2432 22.3103 92.7949 20.8213C91.0977 19.4094 90.2871 19.3564 84.1885 17.4482C83.4365 17.241 77.1094 15.2622 77.0947 9.03809C76.9961 4.50195 81.1523 0.0144043 88.3564 0.0512695C90.4092 0.0495605 95.8779 0.7146 97.3584 2.56006C97.5771 2.89575 97.6855 3.29102 97.6699 3.69092L97.6699 5.3147C97.6699 6.02808 97.4072 6.38452 96.8809 6.38452C95.6318 6.24634 93.416 4.59033 88.917 4.65796C87.8008 4.6001 82.4551 4.80396 82.6953 8.6687C82.625 11.7139 87.0059 12.856 87.5059 12.9878C93.4121 14.7498 95.3867 15.042 97.7314 17.739C100.508 21.3127 99.0107 25.4968 98.4355 26.6438C95.3447 32.6655 87.3525 32.1755 87.2158 32.1724ZM93.7285 49.0151C82.3838 57.3225 65.916 61.7444 51.8545 61.7444C32.8818 61.8684 14.5488 54.9512 0.458984 42.3525C-0.598633 41.4065 0.333984 40.1104 1.62012 40.8315C17.25 49.6965 34.9463 54.3545 52.9531 54.343C66.3994 54.2715 79.6992 51.5669 92.0889 46.3843C93.9971 45.5811 95.6152 47.637 93.7285 49.0151ZM98.457 43.668C97.0059 41.8176 88.8535 42.804 85.2041 43.2361C84.1045 43.3596 83.918 42.4136 84.9141 41.7148C91.4053 37.1902 102.066 38.4863 103.291 40.0076C104.514 41.5286 102.959 52.1201 96.8818 57.1797C95.9492 57.9619 95.0566 57.5491 95.4717 56.521C96.8389 53.1079 99.9082 45.52 98.457 43.668Z" fill="#737373" fill-opacity="1.000000" fill-rule="nonzero"/>
</svg>
