<svg width="75.752930" height="71.855713" viewBox="0 0 75.7529 71.8557" fill="none" xmlns="http://www.w3.org/2000/svg" xmlns:xlink="http://www.w3.org/1999/xlink">
	<desc>
			Created with Pixso.
	</desc>
	<defs/>
	<path id="Vector" d="M67.3057 27.5171C64.9111 27.5171 62.8037 28.5115 61.2549 30.0669C55.5547 26.106 47.875 23.5564 39.3643 23.2837L43.7871 3.27124L57.8701 6.44629C57.8701 9.90991 60.6797 12.7322 64.1289 12.7322C67.6416 12.7322 70.4668 9.82983 70.4668 6.36621C70.4668 2.90234 67.6572 0 64.1289 0C61.6699 0 59.5459 1.49121 58.4922 3.52783L42.9414 0.064209C42.1592 -0.144287 41.3926 0.416992 41.1846 1.20264L36.3311 23.2678C27.8848 23.6206 20.2852 26.1702 14.5693 30.1309C13.0205 28.5115 10.833 27.5171 8.4375 27.5171C-0.439453 27.5171 -3.3457 39.4797 4.78125 43.5688C4.49414 44.8357 4.36621 46.1826 4.36621 47.5295C4.36621 60.9675 19.4385 71.8557 37.9434 71.8557C56.5283 71.8557 71.6006 60.9675 71.6006 47.5295C71.6006 46.1826 71.457 44.7715 71.1055 43.5046C79.0732 39.3997 76.1357 27.5171 67.3057 27.5171ZM17.666 44.4187C17.666 40.8909 20.4766 38.0525 24.0049 38.0525C27.4541 38.0525 30.2637 40.8748 30.2637 44.4187C30.2637 47.8823 27.4541 50.7046 24.0049 50.7046C20.4922 50.7207 17.666 47.8823 17.666 44.4187ZM51.8818 59.4121C46.0703 65.249 29.6729 65.249 23.8613 59.4121C23.2227 58.8508 23.2227 57.8564 23.8613 57.2151C24.4199 56.6538 25.4102 56.6538 25.9688 57.2151C30.4072 61.7854 45.1289 61.8655 49.7588 57.2151C50.3174 56.6538 51.3076 56.6538 51.8662 57.2151C52.5205 57.8564 52.5205 58.8508 51.8818 59.4121ZM51.7549 50.7207C48.3057 50.7207 45.4961 47.8984 45.4961 44.4348C45.4961 40.907 48.3057 38.0686 51.7549 38.0686C55.2676 38.0686 58.0928 40.8909 58.0928 44.4348C58.0771 47.8823 55.2676 50.7207 51.7549 50.7207Z" fill="#737373" fill-opacity="1.000000" fill-rule="nonzero"/>
</svg>
