<svg width="48.000000" height="48.000000" viewBox="0 0 48 48" fill="none" xmlns="http://www.w3.org/2000/svg" xmlns:xlink="http://www.w3.org/1999/xlink">
	<desc>
			Created with Pixso.
	</desc>
	<defs>
		<clipPath id="clip993_510">
			<rect id="bx:bx-stats" width="48.000000" height="27.096775" transform="translate(0.500000 10.000000)" fill="white" fill-opacity="0"/>
		</clipPath>
		<clipPath id="clip965_127">
			<rect id="icn settings .icn-lg" width="48.000000" height="48.000000" fill="white" fill-opacity="0"/>
		</clipPath>
	</defs>
	<rect id="icn settings .icn-lg" width="48.000000" height="48.000000" fill="#FFFFFF" fill-opacity="0"/>
	<g clip-path="url(#clip965_127)">
		<rect id="bx:bx-stats" width="48.000000" height="27.096775" transform="translate(0.500000 10.000000)" fill="#FFFFFF" fill-opacity="0"/>
		<g clip-path="url(#clip993_510)">
			<path id="Vector" d="M43.6504 22.2817C43.0752 22.2861 42.5049 22.396 41.9678 22.606L36.2275 17.8213C36.3691 17.2998 36.4688 16.7588 36.4688 16.1885C36.4688 12.8101 33.8027 10.0947 30.4844 10.0947C27.167 10.0947 24.5 12.8101 24.5 16.1885C24.5 17.1533 24.7393 18.0532 25.1279 18.8623L18.1641 27.2422C17.8848 27.189 17.6025 27.1606 17.3193 27.1567C16.8906 27.1567 16.4863 27.23 16.0938 27.3374L9.95801 21.0898C10.0654 20.6929 10.1377 20.2808 10.1377 19.8447C10.1377 17.144 8.00195 14.9697 5.34961 14.9697C2.69727 14.9697 0.5625 17.144 0.5625 19.8447C0.5625 22.5454 2.69727 24.7192 5.34961 24.7192C5.77832 24.7192 6.18262 24.6465 6.5752 24.5391L12.7109 30.7861C12.5957 31.1909 12.5352 31.6104 12.5312 32.0317C12.5312 34.7324 14.667 36.9067 17.3193 36.9067C19.9717 36.9067 22.1064 34.7324 22.1064 32.0317C22.1064 31.4541 21.9912 30.9106 21.8125 30.396L28.7852 22.0063C29.3281 22.1675 29.8916 22.2817 30.4844 22.2817C31.4297 22.2769 32.3594 22.042 33.1973 21.5972L38.9395 26.3818C38.8945 26.6377 38.8691 26.897 38.8633 27.1567C38.8633 29.8574 40.998 32.0317 43.6504 32.0317C46.3027 32.0317 48.4385 29.8574 48.4385 27.1567C48.4385 24.4561 46.3027 22.2817 43.6504 22.2817Z" fill="#0D5C63" fill-opacity="1.000000" fill-rule="nonzero"/>
		</g>
	</g>
</svg>
