<svg width="48.000000" height="48.000000" viewBox="0 0 48 48" fill="none" xmlns="http://www.w3.org/2000/svg" xmlns:xlink="http://www.w3.org/1999/xlink">
	<desc>
			Created with Pixso.
	</desc>
	<defs>
		<clipPath id="clip993_514">
			<rect id="fa-solid:award" width="35.840000" height="48.000000" transform="translate(6.500000 0.000000)" fill="white" fill-opacity="0"/>
		</clipPath>
		<clipPath id="clip965_134">
			<rect id="icn settings .icn-lg" width="48.000000" height="48.000000" fill="white" fill-opacity="0"/>
		</clipPath>
	</defs>
	<rect id="icn settings .icn-lg" width="48.000000" height="48.000000" fill="#FFFFFF" fill-opacity="0"/>
	<g clip-path="url(#clip965_134)">
		<rect id="fa-solid:award" width="35.840000" height="48.000000" transform="translate(6.500000 0.000000)" fill="#FFFFFF" fill-opacity="0"/>
		<g clip-path="url(#clip993_514)">
			<path id="Vector" d="M15.5635 33.9946C14.7529 33.1802 15.1758 33.4097 13.2188 32.8838C12.332 32.645 11.5518 32.1855 10.8457 31.6353L6.61133 42.064C6.20117 43.0737 6.9668 44.1704 8.05176 44.1294L12.9688 43.9409L16.3516 47.5298C17.0977 48.3208 18.4082 48.0742 18.8184 47.0645L23.6768 35.1001C22.6641 35.6665 21.542 35.9985 20.3809 35.9985C18.5605 35.9985 16.8506 35.2866 15.5635 33.9946ZM42.2275 42.064L37.9932 31.6353C37.2871 32.1865 36.5068 32.645 35.6191 32.8838C33.6523 33.4126 34.084 33.1821 33.2744 33.9946C31.9873 35.2866 30.2764 35.9985 28.457 35.9985C27.2959 35.9985 26.1729 35.6655 25.1611 35.1001L30.0195 47.0645C30.4287 48.0742 31.7402 48.3208 32.4863 47.5298L35.8691 43.9409L40.7871 44.1294C41.8721 44.1704 42.6367 43.0728 42.2275 42.064ZM31.0459 31.8735C32.4717 30.4155 32.6357 30.541 34.666 29.9854C35.9629 29.6299 36.9766 28.5938 37.3232 27.2681C38.0215 24.606 37.8408 24.9272 39.7451 22.979C40.6943 22.0088 41.0654 20.5942 40.7178 19.2686C40.0205 16.6079 40.0195 16.9795 40.7178 14.3159C41.0654 12.9902 40.6943 11.5757 39.7451 10.605C37.8408 8.65723 38.0215 8.97754 37.3232 6.31592C36.9766 4.99072 35.9629 3.95459 34.666 3.59912C32.0645 2.88574 32.3779 3.07227 30.4707 1.12354C29.5215 0.152832 28.1377 -0.226562 26.8408 0.128418C24.2402 0.841309 24.6035 0.842285 21.9971 0.128418C20.7012 -0.226562 19.3164 0.151855 18.3672 1.12354C16.4629 3.07129 16.7764 2.88574 14.1729 3.59912C12.877 3.95459 11.8633 4.99072 11.5156 6.31592C10.8184 8.97754 10.999 8.65723 9.09375 10.605C8.14453 11.5757 7.77344 12.9902 8.12109 14.3159C8.81836 16.9746 8.81934 16.6035 8.12109 19.2676C7.77441 20.5933 8.14453 22.0078 9.09375 22.979C10.999 24.9272 10.8174 24.606 11.5156 27.2681C11.8633 28.5938 12.877 29.6299 14.1729 29.9854C16.2617 30.5571 16.418 30.4673 17.793 31.8735C19.0273 33.1362 20.9512 33.3618 22.4346 32.4189C23.0283 32.0405 23.7168 31.8394 24.4199 31.8394C25.123 31.8394 25.8105 32.0405 26.4043 32.4189C27.8877 33.3618 29.8115 33.1362 31.0459 31.8735ZM15.6143 16.4946C15.6143 11.5229 19.5566 7.49268 24.4189 7.49268C29.2822 7.49268 33.2246 11.5229 33.2246 16.4946C33.2246 21.4663 29.2822 25.4966 24.4189 25.4966C19.5566 25.4966 15.6143 21.4663 15.6143 16.4946Z" fill="#0D5C63" fill-opacity="1.000000" fill-rule="nonzero"/>
		</g>
	</g>
</svg>
