<svg width="48.000000" height="48.000000" viewBox="0 0 48 48" fill="none" xmlns="http://www.w3.org/2000/svg" xmlns:xlink="http://www.w3.org/1999/xlink">
	<desc>
			Created with Pixso.
	</desc>
	<defs>
		<clipPath id="clip993_518">
			<rect id="carbon:tool-box" width="48.000000" height="40.708862" transform="translate(0.500000 4.000000)" fill="white" fill-opacity="0"/>
		</clipPath>
		<clipPath id="clip965_141">
			<rect id="icn settings .icn-lg" width="48.000000" height="48.000000" fill="white" fill-opacity="0"/>
		</clipPath>
	</defs>
	<rect id="icn settings .icn-lg" width="48.000000" height="48.000000" fill="#FFFFFF" fill-opacity="0"/>
	<g clip-path="url(#clip965_141)">
		<rect id="carbon:tool-box" width="48.000000" height="40.708862" transform="translate(0.500000 4.000000)" fill="#FFFFFF" fill-opacity="0"/>
		<g clip-path="url(#clip993_518)">
			<path id="Vector" d="M43.0889 12.5254L38.0186 12.5254L38.0186 7.45605C38.0186 6.55957 37.6631 5.69971 37.0293 5.06592C36.3955 4.43213 35.5352 4.07617 34.6396 4.07617L14.3604 4.07617C13.4648 4.07617 12.6045 4.43213 11.9707 5.06592C11.3369 5.69971 10.9814 6.55957 10.9814 7.45605L10.9814 12.5254L5.91113 12.5254C4.56641 12.5254 3.27734 13.0596 2.32617 14.0103C1.37598 14.9609 0.841797 16.2505 0.841797 17.5952L0.841797 41.2534C0.841797 42.1499 1.19824 43.0093 1.83203 43.6431C2.46582 44.2769 3.3252 44.6333 4.22168 44.6333L44.7783 44.6333C45.6748 44.6333 46.5342 44.2769 47.168 43.6431C47.8018 43.0093 48.1582 42.1499 48.1582 41.2534L48.1582 17.5952C48.1582 16.2505 47.624 14.9609 46.6738 14.0103C45.7227 13.0596 44.4336 12.5254 43.0889 12.5254ZM14.3604 7.45605L34.6396 7.45605L34.6396 12.5254L14.3604 12.5254L14.3604 7.45605ZM44.7783 41.2534L4.22168 41.2534L4.22168 26.0444L17.7402 26.0444L17.7402 34.4937L31.2598 34.4937L31.2598 26.0444L44.7783 26.0444L44.7783 41.2534ZM21.1201 26.0444L27.8799 26.0444L27.8799 31.1143L21.1201 31.1143L21.1201 26.0444ZM4.22168 22.6646L4.22168 17.5952C4.22168 17.147 4.39941 16.7173 4.7168 16.4004C5.0332 16.0835 5.46289 15.9053 5.91113 15.9053L43.0889 15.9053C43.5371 15.9053 43.9668 16.0835 44.2832 16.4004C44.6006 16.7173 44.7783 17.147 44.7783 17.5952L44.7783 22.6646L4.22168 22.6646Z" fill="#0D5C63" fill-opacity="1.000000" fill-rule="nonzero"/>
		</g>
	</g>
</svg>
