<svg width="72.000000" height="72.000000" viewBox="0 0 72 72" fill="none" xmlns="http://www.w3.org/2000/svg" xmlns:xlink="http://www.w3.org/1999/xlink">
	<desc>
			Created with Pixso.
	</desc>
	<defs>
		<clipPath id="clip964_17595">
			<rect id="icn settings .icn-xl" width="72.000000" height="72.000000" fill="white" fill-opacity="0"/>
		</clipPath>
	</defs>
	<rect id="icn settings .icn-xl" width="72.000000" height="72.000000" fill="#FFFFFF" fill-opacity="0"/>
	<g clip-path="url(#clip964_17595)">
		<path id="Vector" d="M56.4287 38.9946C56.0771 38.6426 55.6602 38.3633 55.2002 38.1726C54.7412 37.9819 54.248 37.884 53.751 37.884C53.2529 37.884 52.7607 37.9819 52.3008 38.1726C51.8408 38.3633 51.4238 38.6426 51.0723 38.9946L45.0332 45.0334C42.2344 44.2 37.0098 42.3057 33.6982 38.9946C30.3877 35.6836 28.4932 30.4595 27.6602 27.6599L33.6982 21.6211C34.0508 21.2695 34.3301 20.8521 34.5205 20.3926C34.7109 19.9329 34.8096 19.4402 34.8096 18.9426C34.8096 18.4451 34.7109 17.9526 34.5205 17.4929C34.3301 17.0334 34.0508 16.616 33.6982 16.2644L18.5449 1.11084C18.1934 0.758545 17.7764 0.479248 17.3164 0.288818C16.8564 0.0981445 16.3643 0 15.8662 0C15.3691 0 14.877 0.0981445 14.417 0.288818C13.957 0.479248 13.54 0.758545 13.1885 1.11084L2.91406 11.3848C1.47461 12.8245 0.664062 14.802 0.694336 16.8213C0.78125 22.2158 2.20996 40.9534 16.9766 55.7205C31.7441 70.4875 50.4814 71.9121 55.8799 72.0029L55.9854 72.0029C57.9863 72.0029 59.877 71.2151 61.3086 69.783L71.583 59.5088C71.9346 59.1572 72.2139 58.7397 72.4043 58.2803C72.5957 57.8206 72.6934 57.3279 72.6934 56.8306C72.6934 56.333 72.5957 55.8403 72.4043 55.3806C72.2139 54.9211 71.9346 54.5037 71.583 54.1521L56.4287 38.9946ZM55.9482 64.4224C51.2197 64.3428 35.0439 63.0737 22.333 50.3599C9.58203 37.6082 8.34668 21.3748 8.27051 16.7417L15.8662 9.146L25.6631 18.9426L20.7646 23.8411C20.3193 24.2861 19.9922 24.835 19.8125 25.4382C19.6328 26.0415 19.6055 26.6799 19.7344 27.2961C19.8252 27.7317 22.0498 38.0627 28.3379 44.3516C34.627 50.6401 44.958 52.864 45.3936 52.9548C46.0088 53.0874 46.6484 53.0627 47.252 52.8833C47.8564 52.7039 48.4053 52.3755 48.8486 51.9282L53.751 47.0298L63.5479 56.8267L55.9482 64.4224Z" fill="#0D5C63" fill-opacity="1.000000" fill-rule="nonzero"/>
	</g>
</svg>
